<svg xmlns="http://www.w3.org/2000/svg" viewBox="0 0 64 64" width="64" height="64">
  <defs>
    <linearGradient id="metaGrad" x1="0" y1="0" x2="1" y2="1">
      <stop offset="0%" stop-color="#0064E0"/>
      <stop offset="100%" stop-color="#0099FF"/>
    </linearGradient>
  </defs>
  <path d="M32 14 C20 14 12 24 12 36 c0 6 3 11 8 11 c5 0 8-4 12-12 c4 8 7 12 12 12 c5 0 8-5 8-11 c0-12-8-22-20-22 z M32 22 c4 0 8 5 12 14 c-4 9-8 14-12 14 c-4 0-8-5-12-14 c4-9 8-14 12-14 z" fill="url(#metaGrad)"/>
</svg>
