<svg xmlns="http://www.w3.org/2000/svg" viewBox="0 0 64 64" width="64" height="64">
  <rect x="2" y="2" width="60" height="60" rx="14" fill="#000000"/>
  <path d="M40 14 c0 4 2 7 6 8 v6 c-3 0-6-1-8-3 v14 c0 7-6 13-13 13 c-7 0-13-6-13-13 c0-7 6-13 13-13 v6 c-4 0-7 3-7 7 c0 4 3 7 7 7 c4 0 7-3 7-7 V14 z" fill="#25F4EE"/>
  <path d="M42 14 c0 4 2 7 6 8 v6 c-3 0-6-1-8-3 v14 c0 7-6 13-13 13 c-7 0-13-6-13-13 c0-7 6-13 13-13 v6 c-4 0-7 3-7 7 c0 4 3 7 7 7 c4 0 7-3 7-7 V14 z" fill="#FE2C55" opacity="0.85"/>
  <path d="M41 14 c0 4 2 7 6 8 v6 c-3 0-6-1-8-3 v14 c0 7-6 13-13 13 c-7 0-13-6-13-13 c0-7 6-13 13-13 v6 c-4 0-7 3-7 7 c0 4 3 7 7 7 c4 0 7-3 7-7 V14 z" fill="#FFFFFF"/>
</svg>
