<svg xmlns="http://www.w3.org/2000/svg" viewBox="0 0 64 64" width="64" height="64">
  <rect x="2" y="2" width="60" height="60" rx="14" fill="#7F54B3"/>
  <path d="M14 22 c0-1.7 1.3-3 3-3 h6 c1.5 0 2.7 1 3 2.4 l2.6 12.1 l3.2-12.5 c0.3-1.2 1.4-2 2.6-2 c1.2 0 2.3 0.8 2.6 2 l3.2 12.5 l2.6-12.1 c0.3-1.4 1.5-2.4 3-2.4 h6 c1.7 0 3 1.3 3 3 c0 0.3 0 0.5-0.1 0.8 l-5 19.5 c-0.4 1.4-1.6 2.4-3 2.4 c-1.4 0-2.6-1-3-2.3 l-3.7-13.5 l-3.7 13.5 c-0.4 1.3-1.6 2.3-3 2.3 c-1.4 0-2.6-1-3-2.4 l-5-19.5 c-0.1-0.3-0.1-0.5-0.1-0.8 z" fill="#FFFFFF"/>
  <path d="M22 49 l-4 6 l8 0 z" fill="#7F54B3"/>
</svg>
